# This file uses centimeters as units for non-parametric coordinates.

mtllib background.mtl
g default
v -10.505652 -7.621148 -11.994904
v -8.526350 -7.630622 -11.935822
v -6.547048 -7.640096 -11.876739
v -4.567744 -7.649570 -11.817657
v -2.588442 -7.659045 -11.758574
v -0.609140 -7.668519 -11.699492
v 1.370164 -7.677993 -11.640409
v 3.349465 -7.687467 -11.581327
v 5.328768 -7.696941 -11.522244
v 7.308072 -7.706415 -11.463162
v 9.287373 -7.715889 -11.404079
v -10.504504 -5.518666 -11.696229
v -8.525202 -5.528140 -11.637147
v -6.545899 -5.537614 -11.578064
v -4.566596 -5.547088 -11.518982
v -2.587294 -5.556563 -11.459899
v -0.607991 -5.566037 -11.400817
v 1.371312 -5.575511 -11.341734
v 3.350614 -5.584985 -11.282652
v 5.329917 -5.594459 -11.223570
v 7.309220 -5.603933 -11.164487
v 9.288522 -5.613407 -11.105405
v -10.503356 -3.416184 -11.397554
v -8.524053 -3.425658 -11.338472
v -6.544751 -3.435132 -11.279390
v -4.565448 -3.444607 -11.220307
v -2.586145 -3.454081 -11.161225
v -0.606843 -3.463555 -11.102142
v 1.372460 -3.473029 -11.043060
v 3.351762 -3.482503 -10.983977
v 5.331065 -3.491977 -10.924895
v 7.310368 -3.501451 -10.865812
v 9.289670 -3.510926 -10.806730
v -10.502208 -1.313702 -11.098880
v -8.522905 -1.323176 -11.039797
v -6.543603 -1.332650 -10.980715
v -4.564300 -1.342124 -10.921632
v -2.584997 -1.351598 -10.862550
v -0.605695 -1.361072 -10.803467
v 1.373608 -1.370546 -10.744385
v 3.352910 -1.380021 -10.685302
v 5.332213 -1.389495 -10.626220
v 7.311516 -1.398969 -10.567137
v 9.290818 -1.408443 -10.508055
v -10.501059 0.788780 -10.800205
v -8.521757 0.779306 -10.741122
v -6.542454 0.769832 -10.682040
v -4.563151 0.760358 -10.622957
v -2.583849 0.750884 -10.563875
v -0.604546 0.741410 -10.504793
v 1.374757 0.731935 -10.445710
v 3.354058 0.722461 -10.386628
v 5.333362 0.712987 -10.327545
v 7.312665 0.703513 -10.268463
v 9.291967 0.694039 -10.209380
v -10.499911 2.891262 -10.501530
v -8.520609 2.881788 -10.442448
v -6.541306 2.872314 -10.383365
v -4.562003 2.862840 -10.324283
v -2.582701 2.853366 -10.265200
v -0.603398 2.843891 -10.206118
v 1.375905 2.834417 -10.147035
v 3.355207 2.824943 -10.087953
v 5.334510 2.815469 -10.028870
v 7.313813 2.805995 -9.969788
v 9.293115 2.796521 -9.910706
v -10.498763 4.993745 -10.202855
v -8.519460 4.984271 -10.143773
v -6.540158 4.974796 -10.084690
v -4.560855 4.965322 -10.025608
v -2.581552 4.955848 -9.966525
v -0.602250 4.946374 -9.907443
v 1.377053 4.936900 -9.848360
v 3.356355 4.927426 -9.789278
v 5.335658 4.917952 -9.730196
v 7.314961 4.908477 -9.671113
v 9.294263 4.899003 -9.612031
v -10.497615 7.096226 -9.904181
v -8.518312 7.086752 -9.845098
v -6.539010 7.077278 -9.786016
v -4.559707 7.067804 -9.726933
v -2.580404 7.058329 -9.667851
v -0.601102 7.048855 -9.608768
v 1.378201 7.039381 -9.549686
v 3.357503 7.029907 -9.490603
v 5.336806 7.020433 -9.431521
v 7.316109 7.010959 -9.372438
v 9.295411 7.001485 -9.313356
v -10.496466 9.198708 -9.605506
v -8.517164 9.189234 -9.546423
v -6.537861 9.179760 -9.487341
v -4.558558 9.170286 -9.428258
v -2.579256 9.160812 -9.369176
v -0.599953 9.151338 -9.310093
v 1.379350 9.141864 -9.251011
v 3.358652 9.132389 -9.191929
v 5.337955 9.122915 -9.132846
v 7.317258 9.113441 -9.073764
v 9.296560 9.103967 -9.014681
v -10.495318 11.301191 -9.306831
v -8.516016 11.291717 -9.247748
v -6.536713 11.282243 -9.188666
v -4.557410 11.272769 -9.129583
v -2.578108 11.263294 -9.070501
v -0.598805 11.253820 -9.011419
v 1.380498 11.244346 -8.952336
v 3.359800 11.234872 -8.893254
v 5.339103 11.225398 -8.834171
v 7.318406 11.215924 -8.775089
v 9.297708 11.206450 -8.716006
v -10.494170 13.403672 -9.008156
v -8.514867 13.394198 -8.949074
v -6.535565 13.384724 -8.889991
v -4.556262 13.375250 -8.830909
v -2.576959 13.365776 -8.771826
v -0.597657 13.356302 -8.712744
v 1.381646 13.346827 -8.653661
v 3.360948 13.337353 -8.594579
v 5.340251 13.327879 -8.535497
v 7.319554 13.318405 -8.476414
v 9.298856 13.308931 -8.417332
vt 0.000000 0.000000
vt 0.100000 0.000000
vt 0.200000 0.000000
vt 0.300000 0.000000
vt 0.400000 0.000000
vt 0.500000 0.000000
vt 0.600000 0.000000
vt 0.700000 0.000000
vt 0.800000 0.000000
vt 0.900000 0.000000
vt 1.000000 0.000000
vt 0.000000 0.100000
vt 0.100000 0.100000
vt 0.200000 0.100000
vt 0.300000 0.100000
vt 0.400000 0.100000
vt 0.500000 0.100000
vt 0.600000 0.100000
vt 0.700000 0.100000
vt 0.800000 0.100000
vt 0.900000 0.100000
vt 1.000000 0.100000
vt 0.000000 0.200000
vt 0.100000 0.200000
vt 0.200000 0.200000
vt 0.300000 0.200000
vt 0.400000 0.200000
vt 0.500000 0.200000
vt 0.600000 0.200000
vt 0.700000 0.200000
vt 0.800000 0.200000
vt 0.900000 0.200000
vt 1.000000 0.200000
vt 0.000000 0.300000
vt 0.100000 0.300000
vt 0.200000 0.300000
vt 0.300000 0.300000
vt 0.400000 0.300000
vt 0.500000 0.300000
vt 0.600000 0.300000
vt 0.700000 0.300000
vt 0.800000 0.300000
vt 0.900000 0.300000
vt 1.000000 0.300000
vt 0.000000 0.400000
vt 0.100000 0.400000
vt 0.200000 0.400000
vt 0.300000 0.400000
vt 0.400000 0.400000
vt 0.500000 0.400000
vt 0.600000 0.400000
vt 0.700000 0.400000
vt 0.800000 0.400000
vt 0.900000 0.400000
vt 1.000000 0.400000
vt 0.000000 0.500000
vt 0.100000 0.500000
vt 0.200000 0.500000
vt 0.300000 0.500000
vt 0.400000 0.500000
vt 0.500000 0.500000
vt 0.600000 0.500000
vt 0.700000 0.500000
vt 0.800000 0.500000
vt 0.900000 0.500000
vt 1.000000 0.500000
vt 0.000000 0.600000
vt 0.100000 0.600000
vt 0.200000 0.600000
vt 0.300000 0.600000
vt 0.400000 0.600000
vt 0.500000 0.600000
vt 0.600000 0.600000
vt 0.700000 0.600000
vt 0.800000 0.600000
vt 0.900000 0.600000
vt 1.000000 0.600000
vt 0.000000 0.700000
vt 0.100000 0.700000
vt 0.200000 0.700000
vt 0.300000 0.700000
vt 0.400000 0.700000
vt 0.500000 0.700000
vt 0.600000 0.700000
vt 0.700000 0.700000
vt 0.800000 0.700000
vt 0.900000 0.700000
vt 1.000000 0.700000
vt 0.000000 0.800000
vt 0.100000 0.800000
vt 0.200000 0.800000
vt 0.300000 0.800000
vt 0.400000 0.800000
vt 0.500000 0.800000
vt 0.600000 0.800000
vt 0.700000 0.800000
vt 0.800000 0.800000
vt 0.900000 0.800000
vt 1.000000 0.800000
vt 0.000000 0.900000
vt 0.100000 0.900000
vt 0.200000 0.900000
vt 0.300000 0.900000
vt 0.400000 0.900000
vt 0.500000 0.900000
vt 0.600000 0.900000
vt 0.700000 0.900000
vt 0.800000 0.900000
vt 0.900000 0.900000
vt 1.000000 0.900000
vt 0.000000 1.000000
vt 0.100000 1.000000
vt 0.200000 1.000000
vt 0.300000 1.000000
vt 0.400000 1.000000
vt 0.500000 1.000000
vt 0.600000 1.000000
vt 0.700000 1.000000
vt 0.800000 1.000000
vt 0.900000 1.000000
vt 1.000000 1.000000
vn -0.030213 -0.140566 0.989610
vn -0.030213 -0.140566 0.989610
vn -0.030213 -0.140566 0.989610
vn -0.030213 -0.140566 0.989610
vn -0.030213 -0.140566 0.989610
vn -0.030213 -0.140566 0.989610
vn -0.030213 -0.140566 0.989610
vn -0.030213 -0.140566 0.989610
vn -0.030213 -0.140566 0.989610
vn -0.030213 -0.140566 0.989610
vn -0.030213 -0.140566 0.989610
vn -0.030213 -0.140566 0.989610
vn -0.030213 -0.140566 0.989610
vn -0.030213 -0.140566 0.989610
vn -0.030213 -0.140566 0.989610
vn -0.030213 -0.140566 0.989610
vn -0.030213 -0.140566 0.989610
vn -0.030213 -0.140566 0.989610
vn -0.030213 -0.140566 0.989610
vn -0.030213 -0.140566 0.989610
vn -0.030213 -0.140566 0.989610
vn -0.030213 -0.140566 0.989610
vn -0.030213 -0.140566 0.989610
vn -0.030213 -0.140566 0.989610
vn -0.030213 -0.140566 0.989610
vn -0.030213 -0.140566 0.989610
vn -0.030213 -0.140566 0.989610
vn -0.030213 -0.140566 0.989610
vn -0.030213 -0.140566 0.989610
vn -0.030213 -0.140566 0.989610
vn -0.030213 -0.140566 0.989610
vn -0.030213 -0.140566 0.989610
vn -0.030213 -0.140566 0.989610
vn -0.030213 -0.140566 0.989610
vn -0.030213 -0.140566 0.989610
vn -0.030213 -0.140566 0.989610
vn -0.030213 -0.140566 0.989610
vn -0.030213 -0.140566 0.989610
vn -0.030213 -0.140566 0.989610
vn -0.030213 -0.140566 0.989610
vn -0.030213 -0.140566 0.989610
vn -0.030213 -0.140566 0.989610
vn -0.030213 -0.140566 0.989610
vn -0.030213 -0.140566 0.989610
vn -0.030213 -0.140566 0.989610
vn -0.030213 -0.140566 0.989610
vn -0.030213 -0.140566 0.989610
vn -0.030213 -0.140566 0.989610
vn -0.030213 -0.140566 0.989610
vn -0.030213 -0.140566 0.989610
vn -0.030213 -0.140566 0.989610
vn -0.030213 -0.140566 0.989610
vn -0.030213 -0.140566 0.989610
vn -0.030213 -0.140566 0.989610
vn -0.030213 -0.140566 0.989610
vn -0.030213 -0.140566 0.989610
vn -0.030213 -0.140566 0.989610
vn -0.030213 -0.140566 0.989610
vn -0.030213 -0.140566 0.989610
vn -0.030213 -0.140566 0.989610
vn -0.030213 -0.140566 0.989610
vn -0.030213 -0.140566 0.989610
vn -0.030213 -0.140566 0.989610
vn -0.030213 -0.140566 0.989610
vn -0.030213 -0.140566 0.989610
vn -0.030213 -0.140566 0.989610
vn -0.030213 -0.140566 0.989610
vn -0.030213 -0.140566 0.989610
vn -0.030213 -0.140566 0.989610
vn -0.030213 -0.140566 0.989610
vn -0.030213 -0.140566 0.989610
vn -0.030213 -0.140566 0.989610
vn -0.030213 -0.140566 0.989610
vn -0.030213 -0.140566 0.989610
vn -0.030213 -0.140566 0.989610
vn -0.030213 -0.140566 0.989610
vn -0.030213 -0.140566 0.989610
vn -0.030213 -0.140566 0.989610
vn -0.030213 -0.140566 0.989610
vn -0.030213 -0.140566 0.989610
vn -0.030213 -0.140566 0.989610
vn -0.030213 -0.140566 0.989610
vn -0.030213 -0.140566 0.989610
vn -0.030213 -0.140566 0.989610
vn -0.030213 -0.140566 0.989610
vn -0.030213 -0.140566 0.989610
vn -0.030213 -0.140566 0.989610
vn -0.030213 -0.140566 0.989610
vn -0.030213 -0.140566 0.989610
vn -0.030213 -0.140566 0.989610
vn -0.030213 -0.140566 0.989610
vn -0.030213 -0.140566 0.989610
vn -0.030213 -0.140566 0.989610
vn -0.030213 -0.140566 0.989610
vn -0.030213 -0.140566 0.989610
vn -0.030213 -0.140566 0.989610
vn -0.030213 -0.140566 0.989610
vn -0.030213 -0.140566 0.989610
vn -0.030213 -0.140566 0.989610
vn -0.030213 -0.140566 0.989610
vn -0.030213 -0.140566 0.989610
vn -0.030213 -0.140566 0.989610
vn -0.030213 -0.140566 0.989610
vn -0.030213 -0.140566 0.989610
vn -0.030213 -0.140566 0.989610
vn -0.030213 -0.140566 0.989610
vn -0.030213 -0.140566 0.989610
vn -0.030213 -0.140566 0.989610
vn -0.030213 -0.140566 0.989610
vn -0.030213 -0.140566 0.989610
vn -0.030213 -0.140566 0.989610
vn -0.030213 -0.140566 0.989610
vn -0.030213 -0.140566 0.989610
vn -0.030213 -0.140566 0.989610
vn -0.030213 -0.140566 0.989610
vn -0.030213 -0.140566 0.989610
vn -0.030213 -0.140566 0.989610
vn -0.030213 -0.140566 0.989610
vn -0.030213 -0.140566 0.989610
vn -0.030213 -0.140566 0.989610
vn -0.030213 -0.140566 0.989610
s 1
g pPlane1
usemtl lambert13SG
f 1/1/1 2/2/2 13/13/3 12/12/4
f 2/2/2 3/3/5 14/14/6 13/13/3
f 3/3/5 4/4/7 15/15/8 14/14/6
f 4/4/7 5/5/9 16/16/10 15/15/8
f 5/5/9 6/6/11 17/17/12 16/16/10
f 6/6/11 7/7/13 18/18/14 17/17/12
f 7/7/13 8/8/15 19/19/16 18/18/14
f 8/8/15 9/9/17 20/20/18 19/19/16
f 9/9/17 10/10/19 21/21/20 20/20/18
f 10/10/19 11/11/21 22/22/22 21/21/20
f 12/12/4 13/13/3 24/24/23 23/23/24
f 13/13/3 14/14/6 25/25/25 24/24/23
f 14/14/6 15/15/8 26/26/26 25/25/25
f 15/15/8 16/16/10 27/27/27 26/26/26
f 16/16/10 17/17/12 28/28/28 27/27/27
f 17/17/12 18/18/14 29/29/29 28/28/28
f 18/18/14 19/19/16 30/30/30 29/29/29
f 19/19/16 20/20/18 31/31/31 30/30/30
f 20/20/18 21/21/20 32/32/32 31/31/31
f 21/21/20 22/22/22 33/33/33 32/32/32
f 23/23/24 24/24/23 35/35/34 34/34/35
f 24/24/23 25/25/25 36/36/36 35/35/34
f 25/25/25 26/26/26 37/37/37 36/36/36
f 26/26/26 27/27/27 38/38/38 37/37/37
f 27/27/27 28/28/28 39/39/39 38/38/38
f 28/28/28 29/29/29 40/40/40 39/39/39
f 29/29/29 30/30/30 41/41/41 40/40/40
f 30/30/30 31/31/31 42/42/42 41/41/41
f 31/31/31 32/32/32 43/43/43 42/42/42
f 32/32/32 33/33/33 44/44/44 43/43/43
f 34/34/35 35/35/34 46/46/45 45/45/46
f 35/35/34 36/36/36 47/47/47 46/46/45
f 36/36/36 37/37/37 48/48/48 47/47/47
f 37/37/37 38/38/38 49/49/49 48/48/48
f 38/38/38 39/39/39 50/50/50 49/49/49
f 39/39/39 40/40/40 51/51/51 50/50/50
f 40/40/40 41/41/41 52/52/52 51/51/51
f 41/41/41 42/42/42 53/53/53 52/52/52
f 42/42/42 43/43/43 54/54/54 53/53/53
f 43/43/43 44/44/44 55/55/55 54/54/54
f 45/45/46 46/46/45 57/57/56 56/56/57
f 46/46/45 47/47/47 58/58/58 57/57/56
f 47/47/47 48/48/48 59/59/59 58/58/58
f 48/48/48 49/49/49 60/60/60 59/59/59
f 49/49/49 50/50/50 61/61/61 60/60/60
f 50/50/50 51/51/51 62/62/62 61/61/61
f 51/51/51 52/52/52 63/63/63 62/62/62
f 52/52/52 53/53/53 64/64/64 63/63/63
f 53/53/53 54/54/54 65/65/65 64/64/64
f 54/54/54 55/55/55 66/66/66 65/65/65
f 56/56/57 57/57/56 68/68/67 67/67/68
f 57/57/56 58/58/58 69/69/69 68/68/67
f 58/58/58 59/59/59 70/70/70 69/69/69
f 59/59/59 60/60/60 71/71/71 70/70/70
f 60/60/60 61/61/61 72/72/72 71/71/71
f 61/61/61 62/62/62 73/73/73 72/72/72
f 62/62/62 63/63/63 74/74/74 73/73/73
f 63/63/63 64/64/64 75/75/75 74/74/74
f 64/64/64 65/65/65 76/76/76 75/75/75
f 65/65/65 66/66/66 77/77/77 76/76/76
f 67/67/68 68/68/67 79/79/78 78/78/79
f 68/68/67 69/69/69 80/80/80 79/79/78
f 69/69/69 70/70/70 81/81/81 80/80/80
f 70/70/70 71/71/71 82/82/82 81/81/81
f 71/71/71 72/72/72 83/83/83 82/82/82
f 72/72/72 73/73/73 84/84/84 83/83/83
f 73/73/73 74/74/74 85/85/85 84/84/84
f 74/74/74 75/75/75 86/86/86 85/85/85
f 75/75/75 76/76/76 87/87/87 86/86/86
f 76/76/76 77/77/77 88/88/88 87/87/87
f 78/78/79 79/79/78 90/90/89 89/89/90
f 79/79/78 80/80/80 91/91/91 90/90/89
f 80/80/80 81/81/81 92/92/92 91/91/91
f 81/81/81 82/82/82 93/93/93 92/92/92
f 82/82/82 83/83/83 94/94/94 93/93/93
f 83/83/83 84/84/84 95/95/95 94/94/94
f 84/84/84 85/85/85 96/96/96 95/95/95
f 85/85/85 86/86/86 97/97/97 96/96/96
f 86/86/86 87/87/87 98/98/98 97/97/97
f 87/87/87 88/88/88 99/99/99 98/98/98
f 89/89/90 90/90/89 101/101/100 100/100/101
f 90/90/89 91/91/91 102/102/102 101/101/100
f 91/91/91 92/92/92 103/103/103 102/102/102
f 92/92/92 93/93/93 104/104/104 103/103/103
f 93/93/93 94/94/94 105/105/105 104/104/104
f 94/94/94 95/95/95 106/106/106 105/105/105
f 95/95/95 96/96/96 107/107/107 106/106/106
f 96/96/96 97/97/97 108/108/108 107/107/107
f 97/97/97 98/98/98 109/109/109 108/108/108
f 98/98/98 99/99/99 110/110/110 109/109/109
f 100/100/101 101/101/100 112/112/111 111/111/112
f 101/101/100 102/102/102 113/113/113 112/112/111
f 102/102/102 103/103/103 114/114/114 113/113/113
f 103/103/103 104/104/104 115/115/115 114/114/114
f 104/104/104 105/105/105 116/116/116 115/115/115
f 105/105/105 106/106/106 117/117/117 116/116/116
f 106/106/106 107/107/107 118/118/118 117/117/117
f 107/107/107 108/108/108 119/119/119 118/118/118
f 108/108/108 109/109/109 120/120/120 119/119/119
f 109/109/109 110/110/110 121/121/121 120/120/120
