# This file uses centimeters as units for non-parametric coordinates.

mtllib cylinder3.mtl
g default
v -0.502565 0.601050 0.629066
v -0.534187 0.574783 0.538847
v -0.550831 0.575296 0.427568
v -0.550869 0.602537 0.306123
v -0.534297 0.653842 0.186398
v -0.502737 0.724187 0.080114
v -0.459278 0.806686 -0.002326
v -0.408175 0.893265 -0.052851
v -0.354430 0.975448 -0.066517
v -0.303303 1.045190 -0.041985
v -0.259800 1.095665 0.018343
v -0.228179 1.121932 0.108562
v -0.211534 1.121419 0.219841
v -0.211496 1.094177 0.341286
v -0.228068 1.042873 0.461011
v -0.259628 0.972528 0.567295
v -0.303087 0.890029 0.649734
v -0.354190 0.803450 0.700260
v -0.407935 0.721267 0.713926
v -0.459062 0.651525 0.689394
v 3.737100 -2.279230 -0.018343
v 3.705479 -2.305497 -0.108562
v 3.688834 -2.304984 -0.219840
v 3.688796 -2.277742 -0.341286
v 3.705369 -2.226438 -0.461011
v 3.736929 -2.156093 -0.567295
v 3.780387 -2.073593 -0.649735
v 3.831490 -1.987014 -0.700260
v 3.885236 -1.904832 -0.713926
v 3.936362 -1.835089 -0.689394
v 3.979865 -1.784614 -0.629066
v 4.011487 -1.758348 -0.538847
v 4.028131 -1.758860 -0.427568
v 4.028169 -1.786102 -0.306123
v 4.011597 -1.837406 -0.186398
v 3.980037 -1.907751 -0.080114
v 3.936578 -1.990251 0.002326
v 3.885475 -2.076830 0.052851
v 3.831730 -2.159012 0.066517
v 3.780603 -2.228755 0.041985
v -0.381183 0.848357 0.323704
v 3.858483 -2.031922 -0.323704
vt 0.648603 0.107966
vt 0.626409 0.064408
vt 0.591842 0.029841
vt 0.548284 0.007647
vt 0.500000 -0.000000
vt 0.451716 0.007647
vt 0.408159 0.029841
vt 0.373591 0.064409
vt 0.351397 0.107966
vt 0.343750 0.156250
vt 0.351397 0.204534
vt 0.373591 0.248091
vt 0.408159 0.282659
vt 0.451716 0.304853
vt 0.500000 0.312500
vt 0.548284 0.304853
vt 0.591841 0.282659
vt 0.626409 0.248091
vt 0.648603 0.204534
vt 0.656250 0.156250
vt 0.375000 0.312500
vt 0.387500 0.312500
vt 0.400000 0.312500
vt 0.412500 0.312500
vt 0.425000 0.312500
vt 0.437500 0.312500
vt 0.450000 0.312500
vt 0.462500 0.312500
vt 0.475000 0.312500
vt 0.487500 0.312500
vt 0.500000 0.312500
vt 0.512500 0.312500
vt 0.525000 0.312500
vt 0.537500 0.312500
vt 0.550000 0.312500
vt 0.562500 0.312500
vt 0.575000 0.312500
vt 0.587500 0.312500
vt 0.600000 0.312500
vt 0.612500 0.312500
vt 0.625000 0.312500
vt 0.375000 0.688440
vt 0.387500 0.688440
vt 0.400000 0.688440
vt 0.412500 0.688440
vt 0.425000 0.688440
vt 0.437500 0.688440
vt 0.450000 0.688440
vt 0.462500 0.688440
vt 0.475000 0.688440
vt 0.487500 0.688440
vt 0.500000 0.688440
vt 0.512500 0.688440
vt 0.525000 0.688440
vt 0.537500 0.688440
vt 0.550000 0.688440
vt 0.562500 0.688440
vt 0.575000 0.688440
vt 0.587500 0.688440
vt 0.600000 0.688440
vt 0.612500 0.688440
vt 0.625000 0.688440
vt 0.648603 0.795466
vt 0.626409 0.751908
vt 0.591842 0.717341
vt 0.548284 0.695147
vt 0.500000 0.687500
vt 0.451716 0.695147
vt 0.408159 0.717341
vt 0.373591 0.751909
vt 0.351397 0.795466
vt 0.343750 0.843750
vt 0.351397 0.892034
vt 0.373591 0.935591
vt 0.408159 0.970159
vt 0.451716 0.992353
vt 0.500000 1.000000
vt 0.548284 0.992353
vt 0.591841 0.970159
vt 0.626409 0.935591
vt 0.648603 0.892034
vt 0.656250 0.843750
vt 0.500000 0.150000
vt 0.500000 0.837500
vn -0.401871 -0.718996 0.567049
vn -0.522585 -0.820948 0.230106
vn -0.522585 -0.820948 0.230106
vn -0.401871 -0.718996 0.567049
vn -0.567003 -0.821716 -0.057353
vn -0.567003 -0.821716 -0.057353
vn -0.567716 -0.770504 -0.289865
vn -0.567716 -0.770504 -0.289865
vn -0.540890 -0.687144 -0.485047
vn -0.540890 -0.687144 -0.485047
vn -0.489310 -0.572338 -0.658031
vn -0.489310 -0.572338 -0.658031
vn -0.405671 -0.413966 -0.814901
vn -0.405671 -0.413966 -0.814901
vn -0.272694 -0.189373 -0.943279
vn -0.272694 -0.189373 -0.943279
vn -0.070193 0.119288 -0.990375
vn -0.070193 0.119288 -0.990375
vn 0.184314 0.465836 -0.865462
vn 0.184314 0.465836 -0.865462
vn 0.401871 0.718997 -0.567048
vn 0.401871 0.718997 -0.567048
vn 0.522586 0.820948 -0.230106
vn 0.522586 0.820948 -0.230106
vn 0.567003 0.821716 0.057353
vn 0.567003 0.821716 0.057353
vn 0.567716 0.770504 0.289865
vn 0.567716 0.770504 0.289865
vn 0.540890 0.687144 0.485047
vn 0.540890 0.687144 0.485047
vn 0.489310 0.572338 0.658031
vn 0.489310 0.572338 0.658031
vn 0.405671 0.413966 0.814901
vn 0.405671 0.413966 0.814901
vn 0.272695 0.189373 0.943279
vn 0.272695 0.189373 0.943279
vn 0.070193 -0.119288 0.990375
vn 0.070193 -0.119288 0.990375
vn -0.184313 -0.465835 0.865463
vn -0.184313 -0.465835 0.865463
vn -0.820650 0.557521 0.125316
vn -0.820650 0.557521 0.125316
vn -0.820650 0.557521 0.125316
vn -0.820650 0.557521 0.125316
vn -0.820650 0.557521 0.125316
vn -0.820650 0.557521 0.125316
vn -0.820650 0.557521 0.125316
vn -0.820650 0.557521 0.125316
vn -0.820650 0.557521 0.125316
vn -0.820650 0.557521 0.125316
vn -0.820650 0.557521 0.125316
vn -0.820650 0.557521 0.125316
vn -0.820650 0.557521 0.125316
vn -0.820650 0.557521 0.125316
vn -0.820650 0.557521 0.125316
vn -0.820650 0.557521 0.125316
vn -0.820650 0.557521 0.125316
vn -0.820650 0.557521 0.125316
vn -0.820650 0.557521 0.125316
vn -0.820650 0.557521 0.125316
vn -0.820650 0.557521 0.125316
vn 0.820650 -0.557521 -0.125316
vn 0.820650 -0.557521 -0.125316
vn 0.820650 -0.557521 -0.125316
vn 0.820650 -0.557521 -0.125316
vn 0.820650 -0.557521 -0.125316
vn 0.820650 -0.557521 -0.125316
vn 0.820650 -0.557521 -0.125316
vn 0.820650 -0.557521 -0.125316
vn 0.820650 -0.557521 -0.125316
vn 0.820650 -0.557521 -0.125316
vn 0.820650 -0.557521 -0.125316
vn 0.820650 -0.557521 -0.125316
vn 0.820650 -0.557521 -0.125316
vn 0.820650 -0.557521 -0.125316
vn 0.820650 -0.557521 -0.125316
vn 0.820650 -0.557521 -0.125316
vn 0.820650 -0.557521 -0.125316
vn 0.820650 -0.557521 -0.125316
vn 0.820650 -0.557521 -0.125316
vn 0.820650 -0.557521 -0.125316
vn 0.820650 -0.557521 -0.125316
s 1
g pCylinder3
usemtl lambert8SG
f 1/21/1 2/22/2 22/43/3 21/42/4
f 2/22/2 3/23/5 23/44/6 22/43/3
f 3/23/5 4/24/7 24/45/8 23/44/6
f 4/24/7 5/25/9 25/46/10 24/45/8
f 5/25/9 6/26/11 26/47/12 25/46/10
f 6/26/11 7/27/13 27/48/14 26/47/12
f 7/27/13 8/28/15 28/49/16 27/48/14
f 8/28/15 9/29/17 29/50/18 28/49/16
f 9/29/17 10/30/19 30/51/20 29/50/18
f 10/30/19 11/31/21 31/52/22 30/51/20
f 11/31/21 12/32/23 32/53/24 31/52/22
f 12/32/23 13/33/25 33/54/26 32/53/24
f 13/33/25 14/34/27 34/55/28 33/54/26
f 14/34/27 15/35/29 35/56/30 34/55/28
f 15/35/29 16/36/31 36/57/32 35/56/30
f 16/36/31 17/37/33 37/58/34 36/57/32
f 17/37/33 18/38/35 38/59/36 37/58/34
f 18/38/35 19/39/37 39/60/38 38/59/36
f 19/39/37 20/40/39 40/61/40 39/60/38
f 20/40/39 1/41/1 21/62/4 40/61/40
s 2
f 2/2/41 1/1/42 41/83/43
f 3/3/44 2/2/41 41/83/43
f 4/4/45 3/3/44 41/83/43
f 5/5/46 4/4/45 41/83/43
f 6/6/47 5/5/46 41/83/43
f 7/7/48 6/6/47 41/83/43
f 8/8/49 7/7/48 41/83/43
f 9/9/50 8/8/49 41/83/43
f 10/10/51 9/9/50 41/83/43
f 11/11/52 10/10/51 41/83/43
f 12/12/53 11/11/52 41/83/43
f 13/13/54 12/12/53 41/83/43
f 14/14/55 13/13/54 41/83/43
f 15/15/56 14/14/55 41/83/43
f 16/16/57 15/15/56 41/83/43
f 17/17/58 16/16/57 41/83/43
f 18/18/59 17/17/58 41/83/43
f 19/19/60 18/18/59 41/83/43
f 20/20/61 19/19/60 41/83/43
f 1/1/42 20/20/61 41/83/43
s 3
f 21/81/62 22/80/63 42/84/64
f 22/80/63 23/79/65 42/84/64
f 23/79/65 24/78/66 42/84/64
f 24/78/66 25/77/67 42/84/64
f 25/77/67 26/76/68 42/84/64
f 26/76/68 27/75/69 42/84/64
f 27/75/69 28/74/70 42/84/64
f 28/74/70 29/73/71 42/84/64
f 29/73/71 30/72/72 42/84/64
f 30/72/72 31/71/73 42/84/64
f 31/71/73 32/70/74 42/84/64
f 32/70/74 33/69/75 42/84/64
f 33/69/75 34/68/76 42/84/64
f 34/68/76 35/67/77 42/84/64
f 35/67/77 36/66/78 42/84/64
f 36/66/78 37/65/79 42/84/64
f 37/65/79 38/64/80 42/84/64
f 38/64/80 39/63/81 42/84/64
f 39/63/81 40/82/82 42/84/64
f 40/82/82 21/81/62 42/84/64
