# This file uses centimeters as units for non-parametric coordinates.

mtllib cylinder2.mtl
g default
v -5.579030 -1.792474 -1.089956
v -5.544825 -1.878079 -1.053472
v -5.485367 -1.972994 -1.042691
v -5.406477 -2.067926 -1.058667
v -5.315877 -2.153585 -1.099838
v -5.222435 -2.221584 -1.162171
v -5.135298 -2.265267 -1.239567
v -5.062996 -2.280359 -1.324449
v -5.012607 -2.265382 -1.408508
v -4.989062 -2.221803 -1.483516
v -4.994666 -2.153886 -1.542130
v -5.028871 -2.068281 -1.578613
v -5.088329 -1.973366 -1.589395
v -5.167219 -1.878433 -1.573418
v -5.257820 -1.792775 -1.532248
v -5.351261 -1.724776 -1.469914
v -5.438398 -1.681092 -1.392519
v -5.510700 -1.666000 -1.307637
v -5.561090 -1.680977 -1.223578
v -5.584635 -1.724557 -1.148570
v -1.952357 0.778377 1.542130
v -1.918151 0.692772 1.578613
v -1.858694 0.597857 1.589395
v -1.779803 0.502924 1.573418
v -1.689203 0.417266 1.532248
v -1.595761 0.349267 1.469914
v -1.508624 0.305583 1.392519
v -1.436323 0.290491 1.307637
v -1.385933 0.305468 1.223578
v -1.362388 0.349048 1.148570
v -1.367992 0.416965 1.089956
v -1.402198 0.502570 1.053472
v -1.461655 0.597485 1.042691
v -1.540546 0.692417 1.058668
v -1.631146 0.778076 1.099838
v -1.724588 0.846075 1.162171
v -1.811724 0.889758 1.239567
v -1.884026 0.904850 1.324449
v -1.934416 0.889873 1.408508
v -1.957961 0.846294 1.483515
v -5.286848 -1.973180 -1.316043
v -1.660174 0.597671 1.316043
vt 0.648603 0.107966
vt 0.626409 0.064408
vt 0.591842 0.029841
vt 0.548284 0.007647
vt 0.500000 -0.000000
vt 0.451716 0.007647
vt 0.408159 0.029841
vt 0.373591 0.064409
vt 0.351397 0.107966
vt 0.343750 0.156250
vt 0.351397 0.204534
vt 0.373591 0.248091
vt 0.408159 0.282659
vt 0.451716 0.304853
vt 0.500000 0.312500
vt 0.548284 0.304853
vt 0.591841 0.282659
vt 0.626409 0.248091
vt 0.648603 0.204534
vt 0.656250 0.156250
vt 0.375000 0.312500
vt 0.387500 0.312500
vt 0.400000 0.312500
vt 0.412500 0.312500
vt 0.425000 0.312500
vt 0.437500 0.312500
vt 0.450000 0.312500
vt 0.462500 0.312500
vt 0.475000 0.312500
vt 0.487500 0.312500
vt 0.500000 0.312500
vt 0.512500 0.312500
vt 0.525000 0.312500
vt 0.537500 0.312500
vt 0.550000 0.312500
vt 0.562500 0.312500
vt 0.575000 0.312500
vt 0.587500 0.312500
vt 0.600000 0.312500
vt 0.612500 0.312500
vt 0.625000 0.312500
vt 0.375000 0.688440
vt 0.387500 0.688440
vt 0.400000 0.688440
vt 0.412500 0.688440
vt 0.425000 0.688440
vt 0.437500 0.688440
vt 0.450000 0.688440
vt 0.462500 0.688440
vt 0.475000 0.688440
vt 0.487500 0.688440
vt 0.500000 0.688440
vt 0.512500 0.688440
vt 0.525000 0.688440
vt 0.537500 0.688440
vt 0.550000 0.688440
vt 0.562500 0.688440
vt 0.575000 0.688440
vt 0.587500 0.688440
vt 0.600000 0.688440
vt 0.612500 0.688440
vt 0.625000 0.688440
vt 0.648603 0.795466
vt 0.626409 0.751908
vt 0.591842 0.717341
vt 0.548284 0.695147
vt 0.500000 0.687500
vt 0.451716 0.695147
vt 0.408159 0.717341
vt 0.373591 0.751909
vt 0.351397 0.795466
vt 0.343750 0.843750
vt 0.351397 0.892034
vt 0.373591 0.935591
vt 0.408159 0.970159
vt 0.451716 0.992353
vt 0.500000 1.000000
vt 0.548284 0.992353
vt 0.591841 0.970159
vt 0.626409 0.935591
vt 0.648603 0.892034
vt 0.656250 0.843750
vt 0.500000 0.150000
vt 0.500000 0.837500
vn -0.678866 0.251325 0.689911
vn -0.553140 -0.069638 0.830173
vn -0.553140 -0.069638 0.830173
vn -0.678866 0.251325 0.689911
vn -0.400645 -0.315503 0.860199
vn -0.400645 -0.315503 0.860199
vn -0.250101 -0.497561 0.830592
vn -0.250101 -0.497561 0.830592
vn -0.102546 -0.637297 0.763765
vn -0.102546 -0.637297 0.763765
vn 0.049702 -0.747867 0.661985
vn 0.049702 -0.747867 0.661985
vn 0.216238 -0.830540 0.513269
vn 0.216238 -0.830540 0.513269
vn 0.402365 -0.867391 0.292805
vn 0.402365 -0.867391 0.292805
vn 0.589368 -0.807528 -0.023332
vn 0.589368 -0.807528 -0.023332
vn 0.704759 -0.588405 -0.396351
vn 0.704759 -0.588405 -0.396351
vn 0.678865 -0.251324 -0.689912
vn 0.678865 -0.251324 -0.689912
vn 0.553140 0.069638 -0.830173
vn 0.553140 0.069638 -0.830173
vn 0.400645 0.315503 -0.860199
vn 0.400645 0.315503 -0.860199
vn 0.250101 0.497561 -0.830592
vn 0.250101 0.497561 -0.830592
vn 0.102546 0.637297 -0.763765
vn 0.102546 0.637297 -0.763765
vn -0.049702 0.747867 -0.661985
vn -0.049702 0.747867 -0.661985
vn -0.216238 0.830539 -0.513269
vn -0.216238 0.830539 -0.513269
vn -0.402365 0.867391 -0.292805
vn -0.402365 0.867391 -0.292805
vn -0.589368 0.807528 0.023332
vn -0.589368 0.807528 0.023332
vn -0.704759 0.588406 0.396350
vn -0.704759 0.588406 0.396350
vn -0.701996 -0.497626 -0.509479
vn -0.701996 -0.497626 -0.509479
vn -0.701996 -0.497626 -0.509479
vn -0.701996 -0.497626 -0.509479
vn -0.701996 -0.497626 -0.509479
vn -0.701996 -0.497626 -0.509479
vn -0.701996 -0.497626 -0.509479
vn -0.701996 -0.497626 -0.509479
vn -0.701996 -0.497626 -0.509479
vn -0.701996 -0.497626 -0.509479
vn -0.701996 -0.497626 -0.509479
vn -0.701996 -0.497626 -0.509479
vn -0.701996 -0.497626 -0.509479
vn -0.701996 -0.497626 -0.509479
vn -0.701996 -0.497626 -0.509479
vn -0.701996 -0.497626 -0.509479
vn -0.701996 -0.497626 -0.509479
vn -0.701996 -0.497626 -0.509479
vn -0.701996 -0.497626 -0.509479
vn -0.701996 -0.497626 -0.509479
vn -0.701996 -0.497626 -0.509479
vn 0.701996 0.497626 0.509479
vn 0.701996 0.497626 0.509479
vn 0.701996 0.497626 0.509479
vn 0.701996 0.497626 0.509479
vn 0.701996 0.497626 0.509479
vn 0.701996 0.497626 0.509479
vn 0.701996 0.497626 0.509479
vn 0.701996 0.497626 0.509479
vn 0.701996 0.497626 0.509479
vn 0.701996 0.497626 0.509479
vn 0.701996 0.497626 0.509479
vn 0.701996 0.497626 0.509479
vn 0.701996 0.497626 0.509479
vn 0.701996 0.497626 0.509479
vn 0.701996 0.497626 0.509479
vn 0.701996 0.497626 0.509479
vn 0.701996 0.497626 0.509479
vn 0.701996 0.497626 0.509479
vn 0.701996 0.497626 0.509479
vn 0.701996 0.497626 0.509479
vn 0.701996 0.497626 0.509479
s 1
g pCylinder2
usemtl lambert7SG
f 1/21/1 2/22/2 22/43/3 21/42/4
f 2/22/2 3/23/5 23/44/6 22/43/3
f 3/23/5 4/24/7 24/45/8 23/44/6
f 4/24/7 5/25/9 25/46/10 24/45/8
f 5/25/9 6/26/11 26/47/12 25/46/10
f 6/26/11 7/27/13 27/48/14 26/47/12
f 7/27/13 8/28/15 28/49/16 27/48/14
f 8/28/15 9/29/17 29/50/18 28/49/16
f 9/29/17 10/30/19 30/51/20 29/50/18
f 10/30/19 11/31/21 31/52/22 30/51/20
f 11/31/21 12/32/23 32/53/24 31/52/22
f 12/32/23 13/33/25 33/54/26 32/53/24
f 13/33/25 14/34/27 34/55/28 33/54/26
f 14/34/27 15/35/29 35/56/30 34/55/28
f 15/35/29 16/36/31 36/57/32 35/56/30
f 16/36/31 17/37/33 37/58/34 36/57/32
f 17/37/33 18/38/35 38/59/36 37/58/34
f 18/38/35 19/39/37 39/60/38 38/59/36
f 19/39/37 20/40/39 40/61/40 39/60/38
f 20/40/39 1/41/1 21/62/4 40/61/40
s 2
f 2/2/41 1/1/42 41/83/43
f 3/3/44 2/2/41 41/83/43
f 4/4/45 3/3/44 41/83/43
f 5/5/46 4/4/45 41/83/43
f 6/6/47 5/5/46 41/83/43
f 7/7/48 6/6/47 41/83/43
f 8/8/49 7/7/48 41/83/43
f 9/9/50 8/8/49 41/83/43
f 10/10/51 9/9/50 41/83/43
f 11/11/52 10/10/51 41/83/43
f 12/12/53 11/11/52 41/83/43
f 13/13/54 12/12/53 41/83/43
f 14/14/55 13/13/54 41/83/43
f 15/15/56 14/14/55 41/83/43
f 16/16/57 15/15/56 41/83/43
f 17/17/58 16/16/57 41/83/43
f 18/18/59 17/17/58 41/83/43
f 19/19/60 18/18/59 41/83/43
f 20/20/61 19/19/60 41/83/43
f 1/1/42 20/20/61 41/83/43
s 3
f 21/81/62 22/80/63 42/84/64
f 22/80/63 23/79/65 42/84/64
f 23/79/65 24/78/66 42/84/64
f 24/78/66 25/77/67 42/84/64
f 25/77/67 26/76/68 42/84/64
f 26/76/68 27/75/69 42/84/64
f 27/75/69 28/74/70 42/84/64
f 28/74/70 29/73/71 42/84/64
f 29/73/71 30/72/72 42/84/64
f 30/72/72 31/71/73 42/84/64
f 31/71/73 32/70/74 42/84/64
f 32/70/74 33/69/75 42/84/64
f 33/69/75 34/68/76 42/84/64
f 34/68/76 35/67/77 42/84/64
f 35/67/77 36/66/78 42/84/64
f 36/66/78 37/65/79 42/84/64
f 37/65/79 38/64/80 42/84/64
f 38/64/80 39/63/81 42/84/64
f 39/63/81 40/82/82 42/84/64
f 40/82/82 21/81/62 42/84/64
